<svg id="visual" viewBox="0 0 960 200" width="960" height="200" xmlns="http://www.w3.org/2000/svg" xmlns:xlink="http://www.w3.org/1999/xlink" version="1.1"><rect x="0" y="0" width="960" height="200" fill="#001220"></rect><path d="M0 118L32 121C64 124 128 130 192 131.5C256 133 320 130 384 129.5C448 129 512 131 576 131.3C640 131.7 704 130.3 768 130C832 129.7 896 130.3 928 130.7L960 131L960 201L928 201C896 201 832 201 768 201C704 201 640 201 576 201C512 201 448 201 384 201C320 201 256 201 192 201C128 201 64 201 32 201L0 201Z" fill="#c1c4c4"></path><path d="M0 147L32 145.7C64 144.3 128 141.7 192 141.5C256 141.3 320 143.7 384 144.8C448 146 512 146 576 147C640 148 704 150 768 147C832 144 896 136 928 132L960 128L960 201L928 201C896 201 832 201 768 201C704 201 640 201 576 201C512 201 448 201 384 201C320 201 256 201 192 201C128 201 64 201 32 201L0 201Z" fill="#adafaf"></path><path d="M0 160L32 160C64 160 128 160 192 157.8C256 155.7 320 151.3 384 151.8C448 152.3 512 157.7 576 157.2C640 156.7 704 150.3 768 149.8C832 149.3 896 154.7 928 157.3L960 160L960 201L928 201C896 201 832 201 768 201C704 201 640 201 576 201C512 201 448 201 384 201C320 201 256 201 192 201C128 201 64 201 32 201L0 201Z" fill="#999a9a"></path><path d="M0 161L32 160.8C64 160.7 128 160.3 192 160.2C256 160 320 160 384 162.5C448 165 512 170 576 170.8C640 171.7 704 168.3 768 166.7C832 165 896 165 928 165L960 165L960 201L928 201C896 201 832 201 768 201C704 201 640 201 576 201C512 201 448 201 384 201C320 201 256 201 192 201C128 201 64 201 32 201L0 201Z" fill="#858686"></path><path d="M0 183L32 181.8C64 180.7 128 178.3 192 177.8C256 177.3 320 178.7 384 180.3C448 182 512 184 576 185.5C640 187 704 188 768 188.7C832 189.3 896 189.7 928 189.8L960 190L960 201L928 201C896 201 832 201 768 201C704 201 640 201 576 201C512 201 448 201 384 201C320 201 256 201 192 201C128 201 64 201 32 201L0 201Z" fill="#727272"></path></svg>