<?xml version="1.0" encoding="utf-8"?>
<!-- Generator: Adobe Illustrator 24.3.0, SVG Export Plug-In . SVG Version: 6.00 Build 0)  -->
<svg version="1.1" xmlns="http://www.w3.org/2000/svg" xmlns:xlink="http://www.w3.org/1999/xlink" x="0px" y="0px"
	 viewBox="0 0 960 540" style="enable-background:new 0 0 960 540;" xml:space="preserve">
<style type="text/css">
	.st0{display:none;}
	.st1{display:inline;fill:#EAEAEA;}
	.st2{display:inline;}
	.st3{opacity:0.59;fill:#E5E5E5;stroke:#282828;stroke-width:2;stroke-miterlimit:10;}
	.st4{opacity:0.59;fill:#E5E5E5;stroke:#282828;stroke-miterlimit:10;}
	.st5{opacity:0.58;fill:#E5E5E5;stroke:#282828;stroke-miterlimit:10;}
	.st6{display:inline;fill:none;stroke:#282828;stroke-width:3;stroke-miterlimit:10;}
	.st7{display:inline;fill:#1E1E1E;}
	.st8{display:inline;fill:#282828;}
	.st9{display:inline;fill:#282828;stroke:#282828;stroke-width:5;stroke-miterlimit:10;}
	.st10{display:inline;fill:none;}
	.st11{display:inline;fill:#E5E5E5;stroke:#282828;stroke-miterlimit:10;}
	.st12{display:inline;opacity:0.18;fill:none;stroke:#282828;stroke-miterlimit:10;}
	.st13{display:inline;opacity:0.18;fill:#757575;stroke:#282828;stroke-miterlimit:10;}
	.st14{fill:#323638;}
	.st15{fill:#575E63;}
	.st16{fill:none;}
	.st17{display:inline;fill:#474E51;}
	.st18{display:inline;fill:#3F4547;}
	.st19{display:inline;fill:#575E63;}
	.st20{fill:#474E51;}
	.st21{fill:#9CBDDB;}
	.st22{fill:#71AAD0;}
	.st23{fill:#42889F;}
	.st24{fill:#1C666F;}
	.st25{fill:#004442;}
</style>

<g id="visual">
	<path class="st21" d="M0,420.7l21.6,4.8c20,0,58.3-8.6,98.3-4.8c40,3.9,79.2-3,119.2-2.8s82,3.1,122-2c37.2-4.8,77.6-4.6,120-1.4
		c40,3,79.7-3.3,119.7-0.8s80.3-0.4,120.3-5.1c40-4.6,77.2,8.1,117.2,12.1s83.1-3.2,103.1,3.4L960,429v112h-20c-20,0-60,0-100,0
		s-80,0-120,0s-80,0-120,0s-80,0-120,0s-80,0-120,0s-80,0-120,0s-80,0-120,0s-80,0-100,0H0V420.7z"/>
	<path class="st22" d="M0,434.2l17.4,7.9c20,2.6,61.9-15,101.9-14.7s82.5,19.2,122.5,17.2s69.6-24.2,109.6-24s86.5,17.5,126.5,22
		s80.6,0.9,120.6,2.5c40,1.7,82.3,0.2,122.3-4c40-4.1,79.4,1.8,119.4,0.3s79.8-11.9,99.8-12.3l20-0.3v112h-20c-20,0-60,0-100,0
		s-80,0-120,0s-80,0-120,0s-80,0-120,0s-80,0-120,0s-80,0-120,0s-80,0-120,0s-80,0-100,0H0V434.2z"/>
	<path class="st23" d="M720.2,483c40,2,79.7-11.9,119.7-12.6s80.8,11.5,100.8,9.6l19.3-11.3V541h-20c-20,0-60,0-100,0s-80,0-120,0
		s-80,0-120,0s-80,0-120,0s-80,0-120,0s-80,0-120,0s-80,0-120,0s-80,0-100,0H0v-72l20-2.5c20-2.5,59.9,7.4,99.9,6.4
		s82.8-20.6,122.8-20.9c40-0.4,76.9,15.1,116.9,14.4S440,448.9,480,452"/>
	<path class="st24" d="M0,491l19.9,2.8c20,3.1,59.7-5.2,99.7-5.9s80.6-14.2,120.6-13.6c40,0.7,78.9,25,118.9,27.7
		c40,2.6,80.1-13.6,120.1-17.5c40-3.8,80.7,9.8,120.7,11.8s79.7-3.8,119.7-3.6c40,0.1,81.4,5.3,121.4,5.1s79.4-5,99.4-1.4H960V541
		h-20c-20,0-60,0-100,0s-80,0-120,0s-80,0-120,0s-80,0-120,0s-80,0-120,0s-80,0-120,0s-80,0-120,0s-80,0-100,0H0V491z"/>
	<path class="st25" d="M0,504.6l20.2,3c20,1,59.7,9.6,99.7,9.9c40,0.4,79.7-9.6,119.7-9.9s81.1,11,121.1,9s77.7-8.4,117.7-7.3
		c40,1.2,82.8,7.4,122.8,10.7c40,3.4,79.2-7.5,119.2-8.8s79.4,8.5,119.4,9s80.4-4.8,100.2-5.1l19.9-0.6V541h-20c-20,0-60,0-100,0
		s-80,0-120,0s-80,0-120,0s-80,0-120,0s-80,0-120,0s-80,0-120,0s-80,0-120,0s-80,0-100,0H0V504.6z"/>
</g>
</svg>
