<?xml version="1.0" encoding="utf-8"?>
<!-- Generator: Adobe Illustrator 24.3.0, SVG Export Plug-In . SVG Version: 6.00 Build 0)  -->
<svg version="1.1" xmlns="http://www.w3.org/2000/svg" xmlns:xlink="http://www.w3.org/1999/xlink" x="0px" y="0px"
	 viewBox="0 0 960 540" style="enable-background:new 0 0 960 540;" xml:space="preserve">
<style type="text/css">
	.st0{fill:#EAEAEA;}
	.st1{opacity:0.59;fill:#E5E5E5;stroke:#282828;stroke-width:2;stroke-miterlimit:10;}
	.st2{opacity:0.59;fill:#E5E5E5;stroke:#282828;stroke-miterlimit:10;}
	.st3{opacity:0.58;fill:#E5E5E5;stroke:#282828;stroke-miterlimit:10;}
	.st4{fill:none;stroke:#282828;stroke-width:3;stroke-miterlimit:10;}
	.st5{fill:#1E1E1E;}
	.st6{fill:#282828;}
	.st7{fill:#282828;stroke:#282828;stroke-width:5;stroke-miterlimit:10;}
	.st8{fill:none;}
	.st9{fill:#E5E5E5;stroke:#282828;stroke-miterlimit:10;}
	.st10{opacity:0.18;fill:none;stroke:#282828;stroke-miterlimit:10;}
	.st11{opacity:0.18;fill:#757575;stroke:#282828;stroke-miterlimit:10;}
	.st12{fill:#323638;}
	.st13{fill:#575E63;}
	.st14{fill:#474E51;}
	.st15{fill:#3F4547;}
	.st16{fill:#9CBDDB;}
	.st17{fill:#71AAD0;}
	.st18{fill:#42889F;}
	.st19{fill:#1C666F;}
	.st20{fill:#004442;}
</style>
<g id="lighhouse">
	<path class="st0" d="M515.8,119.8h-73.3c-2.9,0-5.4,2.1-5.9,5l-54.8,304.3c-0.7,3.7,2.2,7.1,5.9,7.1h182.9c3.8,0,6.6-3.4,5.9-7.1
		l-54.8-304.3C521.2,121.9,518.7,119.8,515.8,119.8z"/>
	<g>
		<ellipse class="st1" cx="479.6" cy="61.9" rx="11.9" ry="18.3"/>
		<circle class="st2" cx="479.4" cy="61.9" r="6.5"/>
		<ellipse class="st2" cx="479.6" cy="61.9" rx="9" ry="12.6"/>
		<line class="st3" x1="466.7" y1="61.9" x2="472.9" y2="61.9"/>
		<line class="st3" x1="479.6" y1="55.4" x2="479.6" y2="43.6"/>
		<line class="st3" x1="485.4" y1="61.9" x2="491.6" y2="61.9"/>
		<line class="st3" x1="479.6" y1="80.2" x2="479.6" y2="68.4"/>
	</g>
	<rect x="447.9" y="34.7" class="st4" width="62.5" height="62.5"/>
	<path class="st5" d="M521.7,119.8l-0.2,1c-0.3,1.7-1.8,2.9-3.5,2.9h-77.6c-1.7,0-3.1-1.1-3.5-2.8l-0.3-1.1H521.7z"/>
	<path class="st6" d="M531.3,75.1l-9.6,44.7h-85.1l-10.4-44.6c-0.5-2.3,1.2-4.5,3.5-4.5h98.1C530.1,70.7,531.8,72.8,531.3,75.1z"/>
	<path class="st7" d="M478.1,6.6l-29.7,25.6c-1,0.9-0.4,2.5,1,2.5h59.4c1.4,0,2.1-1.6,1-2.5L480.2,6.6
		C479.6,6.1,478.7,6.1,478.1,6.6z"/>
	<path class="st0" d="M479.2,109"/>
	<line class="st8" x1="482.2" y1="119.8" x2="476.2" y2="119.8"/>
	<line class="st8" x1="484.6" y1="119.8" x2="473.8" y2="119.8"/>
	<path class="st9" d="M479.2,65.2"/>
	<path class="st10" d="M508.7,163.7h-25c-0.8,0-1.5-0.7-1.5-1.5v-9.6c0-0.8,0.7-1.5,1.5-1.5h25c0.8,0,1.5,0.7,1.5,1.5v9.6
		C510.3,163,509.6,163.7,508.7,163.7z"/>
	<path class="st10" d="M491.8,264.3h-25.1c-0.8,0-1.5-0.7-1.5-1.5v-9.7c0-0.8,0.7-1.5,1.5-1.5h25.1c0.8,0,1.5,0.7,1.5,1.5v9.7
		C493.2,263.6,492.6,264.3,491.8,264.3z"/>
	<path class="st10" d="M463.8,218.1h-25.2c-0.8,0-1.4-0.6-1.4-1.4v-9.8c0-0.8,0.6-1.4,1.4-1.4h25.2c0.8,0,1.4,0.6,1.4,1.4v9.8
		C465.2,217.5,464.5,218.1,463.8,218.1z"/>
	<path class="st10" d="M446.5,396.7h-24.9c-0.9,0-1.6-0.7-1.6-1.6v-9.5c0-0.9,0.7-1.6,1.6-1.6h24.9c0.9,0,1.6,0.7,1.6,1.6v9.5
		C448,396,447.3,396.7,446.5,396.7z"/>
	<path class="st11" d="M505.8,276.9h-25.1c-0.8,0-1.5-0.7-1.5-1.5v-9.7c0-0.8,0.7-1.5,1.5-1.5h25.1c0.8,0,1.5,0.7,1.5,1.5v9.7
		C507.2,276.2,506.6,276.9,505.8,276.9z"/>
</g>
<g id="rocks">
	<g>
		<path class="st12" d="M621,422.1l-75.9,8.5l-1.7-4.9l-9.3-27.3c-0.2-0.7-0.1-1.4,0.4-1.9l1.3,0.2l75.7,11.6l10.7,10.5
			C623.2,420,622.6,421.9,621,422.1z"/>
		<path class="st13" d="M611.4,408.4l-75.7-11.6l-1.3-0.2c0.2-0.2,0.5-0.4,0.8-0.5l0.2-0.1l43.7-16.1c0.7-0.2,1.4-0.1,1.9,0.4
			l27,24.8L611.4,408.4z"/>
		<path class="st13" d="M626.6,412.5L626.6,412.5z"/>
		<line class="st8" x1="614" y1="408.8" x2="611.4" y2="408.4"/>
		<line class="st8" x1="534.4" y1="396.6" x2="532.1" y2="396.3"/>
	</g>
	<path class="st14" d="M543.4,425.7c-0.7,0.8-1.8,1.4-2.9,1.5l-50.6,6.9v-40.1l40.3-10.6c0.6,0.5,1.1,1.2,1.4,2l3.8,10.5l-0.2,0.1
		c-0.3,0.1-0.6,0.3-0.8,0.5c-0.4,0.5-0.6,1.2-0.4,1.9L543.4,425.7z"/>
	<path class="st15" d="M490.3,394.1v40.1l-44.6,6c-2.5,0.3-4.8-1.2-5.4-3.7l-5.1-20c-0.4-1.5,0-3.2,1.1-4.4l26.9-31L490.3,394.1z"/>
	<path class="st13" d="M530.4,383.7L489.8,395l-26.7-13.9c0.4-0.5,0.9-0.9,1.5-1.2l36.1-18.2c1.8-0.9,3.9-0.6,5.4,0.7L530.4,383.7z"
		/>
	<g>
		<path class="st14" d="M543.2,425.8l-9.3-27.3c-0.2-0.7,0-1.5,0.4-2c0.2-0.2,0.5-0.6,0.8-0.7l0.2-0.1l0.4,1.1l8.7,24
			C545,422.6,544.3,424.6,543.2,425.8z"/>
	</g>
	<line class="st8" x1="489.9" y1="436.2" x2="489.9" y2="434.2"/>
	<path class="st13" d="M364.5,409.6l9.4-13.5c0.5-0.7,1.3-1,2.2-0.9l29.9,5.8c0.7,0.1,1.3,0.6,1.6,1.3l3.6,9.1
		c0.6,1.4-0.5,2.9-2,2.9l-43.2-0.4c-1.4,0-2.5-1.4-2-2.8l0.3-1.1C364.3,409.9,364.4,409.7,364.5,409.6z"/>
</g>
<g id="visual">
	<path class="st16" d="M0,408h20c20,0,60,0,100,3.8c40,3.9,80,11.5,120,11.7s80-7.2,120-12.3c40-5.2,80-8.2,120-5.2s80,12,120,14.5
		s80-1.5,120-6.2c40-4.6,80-10,120-6s80,17.4,100,24l20,6.7v102h-20c-20,0-60,0-100,0s-80,0-120,0s-80,0-120,0s-80,0-120,0
		s-80,0-120,0s-80,0-120,0s-80,0-120,0s-80,0-100,0H0V408z"/>
	<path class="st17" d="M0,425l20,2.7c20,2.6,60,8,100,8.3s80-4.3,120-6.3s80-1.4,120-1.2s80-0.2,120,4.3s80,13.9,120,15.5
		c40,1.7,80-4.3,120-8.5c40-4.1,80-6.5,120-8s80-2.1,100-2.5l20-0.3v112h-20c-20,0-60,0-100,0s-80,0-120,0s-80,0-120,0s-80,0-120,0
		s-80,0-120,0s-80,0-120,0s-80,0-120,0s-80,0-100,0H0V425z"/>
	<path class="st18" d="M0,469l20-2.5c20-2.5,60-7.5,100-8.5s80,2,120,1.7c40-0.4,80-4,120-4.7s80,1.7,120,4.8c40,3.2,80,7.2,120,10
		c40,2.9,80,4.5,120,6.5s80,4.4,120,3.7s80-4.3,100-6.2l20-1.8v69h-20c-20,0-60,0-100,0s-80,0-120,0s-80,0-120,0s-80,0-120,0
		s-80,0-120,0s-80,0-120,0s-80,0-120,0s-80,0-100,0H0V469z"/>
	<path class="st19" d="M0,480l20,3.2c20,3.1,60,9.5,100,8.8s80-8.3,120-7.7c40,0.7,80,9.7,120,12.4c40,2.6,80-1,120-4.9
		c40-3.8,80-7.8,120-5.8s80,10,120,10.2c40,0.1,80-7.5,120-7.7s80,7.2,100,10.8l20,3.7v38h-20c-20,0-60,0-100,0s-80,0-120,0
		s-80,0-120,0s-80,0-120,0s-80,0-120,0s-80,0-120,0s-80,0-120,0s-80,0-100,0H0V480z"/>
	<path class="st20" d="M0,509l20,1c20,1,60,3,100,3.3c40,0.4,80-1,120-1.3s80,0.3,120-1.7s80-6.6,120-5.5c40,1.2,80,8.2,120,11.5
		c40,3.4,80,3,120,1.7s80-3.7,120-3.2s80,3.9,100,5.5l20,1.7v19h-20c-20,0-60,0-100,0s-80,0-120,0s-80,0-120,0s-80,0-120,0
		s-80,0-120,0s-80,0-120,0s-80,0-120,0s-80,0-100,0H0V509z"/>
</g>
</svg>
