<svg id="Layer_1" data-name="Layer 1" xmlns="http://www.w3.org/2000/svg" viewBox="0 0 47.33 122.73"><defs><style>.cls-1{fill:#e0e1e0;}.cls-2{fill:#ededee;}.cls-3{fill:#0b1722;}.cls-4{fill:#ddd;}</style></defs><polygon class="cls-1" points="13.08 18.31 11.1 10.68 5.46 2.63 11.83 0.66 16.89 0.66 20.7 1.65 15.76 10.82 15.48 18.31 13.08 18.31"/><path class="cls-2" d="M58.46,33.48S48.72,43.71,51.54,62C54.32,79.88,68.64,89.29,69,94.56s-6.16,19.9,0,27.39c3.11,3.78,5.67,16.18,5.67,16.18V15.4s-4,12.34-8.33,13.56A21.85,21.85,0,0,0,58.46,33.48Z" transform="translate(-51.03 -15.4)"/><circle class="cls-3" cx="18.8" cy="98.42" r="1.91"/><path class="cls-4" d="M61.56,38.93s-5.78,14.69-.7,27.39,9,13.27,9,13.27,2.33-38.11,1.06-40.66-2-5.22-4.37-5.22S61.56,38.93,61.56,38.93Z" transform="translate(-51.03 -15.4)"/><polygon class="cls-1" points="34.26 18.31 36.23 10.68 41.88 2.63 35.5 0.66 30.44 0.66 26.63 1.65 31.57 10.82 31.86 18.31 34.26 18.31"/><path class="cls-2" d="M90.93,33.48S100.67,43.71,97.85,62c-2.78,17.93-17.1,27.34-17.48,32.61s6.16,19.9,0,27.39c-3.11,3.78-5.68,16.18-5.68,16.18V15.4S78.66,27.74,83,29A21.84,21.84,0,0,1,90.93,33.48Z" transform="translate(-51.03 -15.4)"/><circle class="cls-3" cx="28.54" cy="98.42" r="1.91"/><path class="cls-4" d="M87.82,38.93s5.79,14.69.71,27.39-9,13.27-9,13.27-2.33-38.11-1-40.66,2-5.22,4.37-5.22S87.82,38.93,87.82,38.93Z" transform="translate(-51.03 -15.4)"/></svg>