<svg id="visual" viewBox="0 0 960 540" width="960" height="540" xmlns="http://www.w3.org/2000/svg" xmlns:xlink="http://www.w3.org/1999/xlink" version="1.1"><rect x="0" y="0" width="960" height="540" fill="#001220"></rect><path d="M0 451L32 454.2C64 457.3 128 463.7 192 465.3C256 467 320 464 384 463.7C448 463.3 512 465.7 576 466.2C640 466.7 704 465.3 768 465C832 464.7 896 465.3 928 465.7L960 466L960 541L928 541C896 541 832 541 768 541C704 541 640 541 576 541C512 541 448 541 384 541C320 541 256 541 192 541C128 541 64 541 32 541L0 541Z" fill="#c1c4c4"></path><path d="M0 482L32 480.8C64 479.7 128 477.3 192 477.3C256 477.3 320 479.7 384 480.8C448 482 512 482 576 483C640 484 704 486 768 482.8C832 479.7 896 471.3 928 467.2L960 463L960 541L928 541C896 541 832 541 768 541C704 541 640 541 576 541C512 541 448 541 384 541C320 541 256 541 192 541C128 541 64 541 32 541L0 541Z" fill="#adafaf"></path><path d="M0 497L32 497C64 497 128 497 192 494.5C256 492 320 487 384 487.5C448 488 512 494 576 493.5C640 493 704 486 768 485.5C832 485 896 491 928 494L960 497L960 541L928 541C896 541 832 541 768 541C704 541 640 541 576 541C512 541 448 541 384 541C320 541 256 541 192 541C128 541 64 541 32 541L0 541Z" fill="#999a9a"></path><path d="M0 498L32 497.8C64 497.7 128 497.3 192 497C256 496.7 320 496.3 384 499C448 501.7 512 507.3 576 508.5C640 509.7 704 506.3 768 504.5C832 502.7 896 502.3 928 502.2L960 502L960 541L928 541C896 541 832 541 768 541C704 541 640 541 576 541C512 541 448 541 384 541C320 541 256 541 192 541C128 541 64 541 32 541L0 541Z" fill="#858686"></path><path d="M0 522L32 520.7C64 519.3 128 516.7 192 516.2C256 515.7 320 517.3 384 519.2C448 521 512 523 576 524.7C640 526.3 704 527.7 768 528.3C832 529 896 529 928 529L960 529L960 541L928 541C896 541 832 541 768 541C704 541 640 541 576 541C512 541 448 541 384 541C320 541 256 541 192 541C128 541 64 541 32 541L0 541Z" fill="#727272"></path></svg>